<?xml version="1.0" encoding="UTF-8"?>
<svg width="19px" height="20px" viewBox="0 0 19 20" version="1.1" xmlns="http://www.w3.org/2000/svg" xmlns:xlink="http://www.w3.org/1999/xlink">
    <!-- Generator: Sketch 53.2 (72643) - https://sketchapp.com -->
    <title>Shape</title>
    <desc>Created with Sketch.</desc>
    <g id="Page-1" stroke="none" stroke-width="1" fill="none" fill-rule="evenodd">
        <g id="Mobile-Copy-4" transform="translate(-40.000000, -777.000000)" fill="#F8E71C" fill-rule="nonzero">
            <g id="Group-15" transform="translate(40.000000, 736.000000)">
                <g id="Group-12" transform="translate(0.000000, 41.000000)">
                    <g id="Group-6">
                        <path d="M18.5662749,3.2813236 C18.2773248,2.99858297 17.9345039,2.85719312 17.5386923,2.85719312 L16.0773045,2.85719312 L16.0773045,1.78572615 C16.0773045,1.29475114 15.8982555,0.874334242 15.5405172,0.524631818 C15.182579,0.174929393 14.7526932,0 14.25014,0 L13.5195461,0 C13.0170328,0 12.5869871,0.174929393 12.2292089,0.524670908 C11.8713106,0.874334242 11.6924215,1.29479023 11.6924215,1.78576524 L11.6924215,2.85723221 L7.30797841,2.85723221 L7.30797841,1.78576524 C7.30797841,1.29479023 7.12900931,0.874373333 6.77119108,0.524670908 C6.41345284,0.174929393 5.98336708,0 5.48085383,0 L4.75013998,0 C4.2477467,0 3.81762096,0.174929393 3.45980273,0.524670908 C3.10206449,0.874334242 2.92305539,1.29479023 2.92305539,1.78576524 L2.92305539,2.85723221 L1.46162768,2.85723221 C1.06569603,2.85723221 0.723195154,2.99862206 0.433925091,3.28136269 C0.144655028,3.56406423 0,3.89899049 0,4.28586786 L0,18.5715598 C0,18.9581635 0.144655028,19.2930116 0.433925091,19.5759086 C0.723155161,19.8585711 1.06565603,20 1.46162768,20 L17.5384123,20 C17.934224,20 18.2770848,19.8586101 18.5659949,19.5759086 C18.855305,19.2931289 19,18.9581244 19,18.5715598 L19,4.28582876 C18.99996,3.89883413 18.855425,3.56406423 18.5662749,3.2813236 Z M13.1541692,1.78588251 C13.1541692,1.6816285 13.1881233,1.59598151 13.2565515,1.52917607 C13.3249797,1.46229245 13.4125646,1.42879201 13.5193061,1.42879201 L14.2499,1.42879201 C14.3566816,1.42879201 14.4439865,1.46217518 14.5126547,1.52917607 C14.5811228,1.59609878 14.6153169,1.68174578 14.6153169,1.78588251 L14.6153169,5.00004886 C14.6153169,5.10426378 14.5811228,5.18975441 14.5126547,5.2567553 C14.4439465,5.32356074 14.3566816,5.35713937 14.2499,5.35713937 L13.5193061,5.35713937 C13.4125646,5.35713937 13.3249797,5.3237171 13.2565515,5.2567553 C13.1881233,5.18971532 13.1541692,5.10426378 13.1541692,5.00004886 L13.1541692,1.78588251 Z M4.38480304,1.78588251 C4.38480304,1.6816285 4.41899714,1.59598151 4.48750531,1.52917607 C4.55605348,1.46229245 4.64351838,1.42879201 4.75013998,1.42879201 L5.48085383,1.42879201 C5.58751542,1.42879201 5.67514029,1.46217518 5.74348849,1.52917607 C5.81191668,1.59609878 5.84627075,1.68174578 5.84627075,1.78588251 L5.84627075,5.00004886 C5.84627075,5.10426378 5.81207665,5.18987169 5.74348849,5.2567553 C5.67498032,5.32356074 5.58751542,5.35713937 5.48085383,5.35713937 L4.75013998,5.35713937 C4.64351838,5.35713937 4.5559335,5.3237171 4.48750531,5.2567553 C4.41915711,5.18971532 4.38480304,5.10426378 4.38480304,5.00004886 L4.38480304,1.78588251 Z M17.5384123,18.5713644 L1.46162768,18.5713644 L1.46162768,7.14290461 L17.5384123,7.14290461 L17.5384123,18.5713644 L17.5384123,18.5713644 Z" id="Shape"></path>
                    </g>
                </g>
            </g>
        </g>
    </g>
</svg>