<?xml version="1.0" encoding="UTF-8"?>
<svg width="21px" height="18px" viewBox="0 0 21 18" version="1.1" xmlns="http://www.w3.org/2000/svg" xmlns:xlink="http://www.w3.org/1999/xlink">
    <!-- Generator: Sketch 53.2 (72643) - https://sketchapp.com -->
    <title>funds</title>
    <desc>Created with Sketch.</desc>
    <g id="Page-1" stroke="none" stroke-width="1" fill="none" fill-rule="evenodd">
        <g id="Mobile-Copy-4" transform="translate(-40.000000, -869.000000)" fill="#F8E71C" fill-rule="nonzero">
            <g id="Group-15" transform="translate(40.000000, 736.000000)">
                <g id="funds" transform="translate(0.000000, 133.000000)">
                    <path d="M15.9405368,7.55573135 C15.9400714,7.55200749 15.9397921,7.54823822 15.9392336,7.54455977 C15.9365342,7.52621295 15.9329504,7.50791154 15.9278774,7.4898372 C15.9278308,7.48965554 15.9277378,7.48947389 15.9276912,7.48924683 C15.9229439,7.47235322 15.9168935,7.45568668 15.9100518,7.43920178 C15.9080971,7.43447884 15.9059562,7.42993755 15.9038618,7.42530543 C15.8984629,7.41340724 15.892459,7.4016907 15.8859431,7.39015582 C15.8831041,7.38511499 15.8803581,7.38007415 15.8772864,7.37512414 C15.8756574,7.37244478 15.8743542,7.36967459 15.8726322,7.36699523 C15.865744,7.35632319 15.8582042,7.34628693 15.8505713,7.3363415 C15.8491285,7.33447957 15.847965,7.33252682 15.8465222,7.3307103 C15.8348867,7.31599651 15.8223204,7.30232722 15.809149,7.28938454 C15.8066823,7.28693224 15.8039829,7.28466159 15.8014231,7.28230012 C15.7899738,7.27153726 15.7781056,7.26145559 15.7657255,7.25196428 C15.7625606,7.2495574 15.7594888,7.24715051 15.7562309,7.24483446 C15.739662,7.23284544 15.7225811,7.22167386 15.7047556,7.21200091 L8.84797256,3.40898616 L12.7958879,0.983300079 L19.4144695,4.6541178 L16.6270296,6.36677551 C16.4094928,6.50038034 16.3441945,6.78080517 16.4811673,6.99301977 C16.6180935,7.2052798 16.9054431,7.26899413 17.1229799,7.13534389 L20.5682894,5.01851112 C20.706798,4.93345271 20.7893168,4.78363546 20.7855934,4.62396361 C20.7819166,4.46429176 20.6926027,4.31833461 20.5502777,4.23940695 L13.0136108,0.0593286664 C12.8645371,-0.0234136866 12.6808363,-0.0193265232 12.5356256,0.0698190525 L7.69731757,3.04259467 C7.69634019,3.04318504 7.69531627,3.04382082 7.69433889,3.04441118 L5.27662765,4.52991344 C5.27551065,4.53059463 5.27439364,4.53127583 5.27332318,4.53195702 L0.431710637,7.50677622 C0.293201991,7.59183463 0.210683231,7.74165188 0.214406582,7.90132373 C0.218083391,8.06099558 0.307397266,8.20695273 0.449722347,8.28588039 L7.98643575,12.4659587 C8.057831,12.5056042 8.13713837,12.5253134 8.2163992,12.5253134 C8.30264131,12.5253134 8.3887438,12.5019257 8.46437436,12.4554683 L11.9096838,10.3385901 C12.1272206,10.2049853 12.1925189,9.92456045 12.0555461,9.71234584 C11.9186664,9.50008582 11.6312238,9.43632607 11.4137335,9.57002173 L8.20415869,11.5420327 L1.58557702,7.87112413 L5.53353885,5.44539264 L12.5925464,9.3605319 L12.5925464,14.5458707 C12.5925464,14.7112646 12.6846528,14.8635342 12.8330283,14.9434609 C12.9031669,14.9812445 12.9806126,15 13.0579652,15 C13.1442539,15 13.2303563,14.9766123 13.3059404,14.9301549 L15.7267699,13.4427453 C15.8621137,13.3595943 15.9442136,13.2144999 15.9442136,13.0584611 L15.9442136,7.60890989 C15.9442136,7.60623053 15.9437482,7.6036874 15.9436551,7.60100804 C15.9433758,7.58593095 15.9423519,7.57085386 15.9405368,7.55573135 Z M13.523384,13.7233064 L13.523384,9.0963649 C13.523384,8.9330146 13.4334651,8.7822891 13.2879287,8.70159033 L6.42714302,4.89639576 L7.95432185,3.95802845 L14.572857,7.62889158 L13.993364,7.98492893 C13.7758272,8.11853376 13.710529,8.39895858 13.8475017,8.61117319 C13.9359313,8.74832023 14.0871459,8.8233878 14.2418046,8.8233878 C14.3265108,8.8233878 14.412334,8.80081757 14.4893143,8.7534973 L15.0133294,8.43156506 L15.0133294,12.8078272 L13.523384,13.7233064 Z" id="Shape"></path>
                    <path d="M20.0870231,6.06934075 L16.713003,8.16852969 C16.4999674,8.30102093 16.4360203,8.57910841 16.5701588,8.7895542 C16.6567587,8.92555812 16.8048444,9 16.9563029,9 C17.0392564,9 17.1233038,8.9776179 17.1986912,8.93069204 L20.5727113,6.8315031 C20.7857469,6.69901187 20.849694,6.42092439 20.7155554,6.21047859 C20.5814625,5.99998776 20.300013,5.93675945 20.0870231,6.06934075 Z" id="Path"></path>
                    <path d="M11.4956199,11.5844814 L8.26259799,13.5775849 L0.914846537,9.48861079 C0.689907237,9.36339924 0.403552664,9.4403254 0.275611991,9.66082257 C0.147671318,9.88118204 0.226386009,10.1613934 0.451512836,10.2866508 L8.04328452,14.511439 C8.11520134,14.5515086 8.19508807,14.5714286 8.27492793,14.5714286 C8.36180007,14.5714286 8.44853156,14.5477908 8.52471463,14.5008364 L11.9951933,12.3613162 C12.2143192,12.2262824 12.2800945,11.9428581 12.1421211,11.7283737 C12.0042415,11.5137974 11.7146989,11.4493557 11.4956199,11.5844814 Z" id="Path"></path>
                    <path d="M20.0870231,7.78363716 L16.713003,9.88281844 C16.4999674,10.0153092 16.4360203,10.2933957 16.5701588,10.5038407 C16.6567587,10.6398441 16.8048444,10.7142857 16.9563029,10.7142857 C17.0392564,10.7142857 17.1233038,10.6919037 17.1986912,10.644978 L20.5727113,8.54579673 C20.7857469,8.41330598 20.849694,8.13521951 20.7155554,7.92477448 C20.5814625,7.71423939 20.300013,7.65105634 20.0870231,7.78363716 Z" id="Path"></path>
                    <path d="M11.4956199,13.2987671 L8.26259799,15.2918706 L0.914846537,11.2028965 C0.689907237,11.077685 0.403552664,11.1546111 0.275611991,11.3751083 C0.147671318,11.5954678 0.226386009,11.8756791 0.451512836,12.0009365 L8.04328452,16.2257247 C8.11520134,16.2657943 8.19508807,16.2857143 8.27492793,16.2857143 C8.36180007,16.2857143 8.44853156,16.2620765 8.52471463,16.2151221 L11.9951933,14.0756019 C12.2143192,13.9405681 12.2800945,13.6571438 12.1421211,13.4426594 C12.0042415,13.2280372 11.7146989,13.1636414 11.4956199,13.2987671 Z" id="Path"></path>
                    <path d="M20.0870231,9.92646411 L16.713003,12.025667 C16.4999674,12.1581591 16.4360203,12.4362485 16.5701588,12.6466957 C16.6567587,12.7827005 16.8048444,12.8571429 16.9563029,12.8571429 C17.0392564,12.8571429 17.1233038,12.8347606 17.1986912,12.7878344 L20.5727113,10.6886315 C20.7857469,10.5561394 20.849694,10.2780501 20.7155554,10.0676029 C20.5814625,9.85711066 20.300013,9.79392696 20.0870231,9.92646411 Z" id="Path"></path>
                    <path d="M11.4956199,15.0130528 L8.26259799,17.0061563 L0.914846537,12.9171822 C0.689907237,12.7919707 0.403552664,12.8688968 0.275611991,13.089394 C0.147671318,13.3097535 0.226386009,13.5899648 0.451512836,13.7152222 L8.04328452,17.9400104 C8.11520134,17.98008 8.19508807,18 8.27492793,18 C8.36180007,18 8.44853156,17.9763622 8.52471463,17.9294079 L11.9951933,15.7898876 C12.2143192,15.6548538 12.2800945,15.3714296 12.1421211,15.1569451 C12.0042415,14.9423689 11.7146989,14.8779271 11.4956199,15.0130528 Z" id="Path"></path>
                </g>
            </g>
        </g>
    </g>
</svg>