<?xml version="1.0" encoding="UTF-8"?>
<svg width="21px" height="18px" viewBox="0 0 21 18" version="1.1" xmlns="http://www.w3.org/2000/svg" xmlns:xlink="http://www.w3.org/1999/xlink">
    <!-- Generator: Sketch 53.2 (72643) - https://sketchapp.com -->
    <title>check</title>
    <desc>Created with Sketch.</desc>
    <g id="Page-1" stroke="none" stroke-width="1" fill="none" fill-rule="evenodd">
        <g id="Mobile-Copy-4" transform="translate(-40.000000, -575.000000)" fill="#F8E71C" fill-rule="nonzero">
            <g id="Group-14" transform="translate(40.000000, 524.000000)">
                <g id="Group-13" transform="translate(0.000000, 44.000000)">
                    <g id="Group">
                        <g id="check" transform="translate(0.000000, 7.000000)">
                            <path d="M17.8458588,9.88193503 C17.7945211,9.8561887 17.7430933,9.84333792 17.6912602,9.84333792 C17.5796681,9.84333792 17.4813608,9.88592011 17.3957078,9.97126361 L16.5727726,10.7893701 C16.4958561,10.8661614 16.4572176,10.9597885 16.4572176,11.0706992 L16.4572176,14.317558 C16.4572176,14.8801713 16.2562348,15.361471 15.8530984,15.7622183 C15.4502771,16.1627417 14.9659009,16.3630258 14.4001499,16.3630258 L3.70289311,16.3630258 C3.13709702,16.3630258 2.65276584,16.1627417 2.24994461,15.7622183 C1.84703331,15.3615158 1.64569024,14.8802161 1.64569024,14.317558 L1.64569024,3.68154647 C1.64569024,3.11906746 1.84703331,2.63754387 2.24994461,2.23688616 C2.65276584,1.836318 3.13709702,1.6360787 3.70289311,1.6360787 L14.4002399,1.6360787 C14.5888386,1.6360787 14.7816704,1.66164592 14.9787804,1.71282516 C15.0302532,1.72975057 15.0688016,1.73839238 15.0942003,1.73839238 C15.2057923,1.73839238 15.3044149,1.69589974 15.3900679,1.61069057 L16.0200812,0.984271105 C16.1228467,0.882136523 16.1615752,0.758464573 16.1356361,0.613703019 C16.1099222,0.47731462 16.0326904,0.379254675 15.9041209,0.319657512 C15.4415407,0.106880863 14.9398718,0 14.3998797,0 L3.70289311,0 C2.682893,0 1.81069158,0.360090448 1.08637892,1.08027134 C0.36215633,1.80054179 0,2.6676335 0,3.68185991 L0,14.3181401 C0,15.3321874 0.36215633,16.1993687 1.08642396,16.9195496 C1.81073662,17.6399096 2.68293803,18 3.70293814,18 L14.4001499,18 C15.4200149,18 16.2923064,17.6399096 17.016619,16.9195496 C17.7409767,16.1993687 18.1034483,15.3322322 18.1034483,14.3181401 L18.1034483,10.2525927 C18.1033582,10.0737564 18.0172099,9.95026356 17.8458588,9.88193503 Z" id="Path"></path>
                            <path d="M20.6910354,3.12804461 L19.2745607,1.74226852 C19.0685542,1.54077088 18.8237637,1.44 18.5404147,1.44 C18.2574264,1.44 18.0124555,1.54077088 17.8066294,1.74226852 L9.47590531,9.89240027 L6.08978701,6.57944727 C5.88373546,6.37781727 5.63903516,6.27717875 5.35586648,6.27717875 C5.07265271,6.27717875 4.8280426,6.37781727 4.62194595,6.57944727 L3.2056516,7.96504688 C2.99964515,8.16658864 2.89655172,8.40598566 2.89655172,8.68319382 C2.89655172,8.96026962 2.99964515,9.19957841 3.2056516,9.40120841 L8.74216517,14.8177315 C8.94821672,15.0194056 9.19291703,15.12 9.4760857,15.12 C9.75925438,15.12 10.0039096,15.0194497 10.2100062,14.8177315 L20.6909001,4.56402966 C20.8967713,4.36253202 21,4.12309088 21,3.84601507 C21,3.56893927 20.8970419,3.32954225 20.6910354,3.12804461 Z" id="Path"></path>
                        </g>
                    </g>
                </g>
            </g>
        </g>
    </g>
</svg>