<?xml version="1.0" encoding="UTF-8"?>
<svg width="20px" height="20px" viewBox="0 0 20 20" version="1.1" xmlns="http://www.w3.org/2000/svg" xmlns:xlink="http://www.w3.org/1999/xlink">
    <!-- Generator: Sketch 53.2 (72643) - https://sketchapp.com -->
    <title>clock</title>
    <desc>Created with Sketch.</desc>
    <g id="Page-1" stroke="none" stroke-width="1" fill="none" fill-rule="evenodd">
        <g id="Mobile-Copy-4" transform="translate(-40.000000, -836.000000)" fill="#F8E71C" fill-rule="nonzero">
            <g id="Group-15" transform="translate(40.000000, 736.000000)">
                <g id="clock" transform="translate(0.000000, 100.000000)">
                    <path d="M19.2016993,6.10508384 C18.1472549,3.64540009 16.3554248,1.85654215 13.8765686,0.798739177 C12.6376144,0.270050224 11.3396078,0 9.98356209,0 C8.6277451,0 7.33931373,0.267499804 6.10173203,0.798739177 C3.64339869,1.85373015 1.84362745,3.64144367 0.787320261,6.10508384 C0.258006536,7.33935625 0,8.6324518 0,9.98901358 C0,11.3458369 0.258006536,12.6496573 0.787320261,13.8841913 C1.84362745,16.3478315 3.64362745,18.1462698 6.10173203,19.2015224 C7.33954248,19.7327618 8.62771242,20 9.98356209,20 C11.3394118,20 12.6376144,19.7299498 13.8763725,19.2015224 C16.3552288,18.1436867 18.1470588,16.3436462 19.201732,13.8841913 C19.7326471,12.6457009 20,11.3458369 20,9.98901358 C20,8.6324518 19.7328758,7.34354155 19.2016993,6.10508384 Z M17.6053595,14.4093816 C16.8203595,15.756363 15.7449346,16.8249562 14.3904902,17.6150305 C13.0442484,18.4004617 11.569183,18.7965615 9.98379085,18.7965615 C8.79196078,18.7965615 7.65470588,18.5668929 6.57202614,18.0963405 C5.48937908,17.6260169 4.55460784,17.0077036 3.77264706,16.2255421 C2.99068627,15.4431518 2.36830065,14.4987444 1.9029085,13.4136389 C1.43888889,12.3324897 1.21401961,11.1817599 1.21401961,9.98904627 C1.21401961,8.40255434 1.60359477,6.93416647 2.38418301,5.59091266 C3.16754902,4.24275419 4.24320261,3.17301656 5.5880719,2.38523111 C6.93271242,1.59747835 8.39820261,1.20347119 9.98356209,1.20347119 C11.569183,1.20347119 13.0439869,1.59979989 14.3902614,2.38523111 C15.7447059,3.17533809 16.8178105,4.24504303 17.6051307,5.59087996 C18.392451,6.93648801 18.7860131,8.40255434 18.7860131,9.98901358 C18.7860131,11.5755382 18.3950327,13.0539316 17.6053595,14.4093816 Z" id="Shape"></path>
                    <path d="M9.65497637,10.2580765 L9.65497637,3.70809581 C9.65497637,3.31614524 9.25945046,3 8.8054513,3 C8.38086384,3 8,3.31614524 8,3.70809581 L8,10.3592006 C8,10.3718978 8.02936792,10.4226111 8.02936792,10.4604004 C8,10.6880431 8.07344168,10.8777075 8.24903646,11.0295827 L12.6280953,14.8102505 C12.921118,15.0632498 13.4628707,15.0632498 13.7556746,14.8102505 C14.0924209,14.5194619 14.0702746,14.0975444 13.7556746,13.8239877 L9.65497637,10.2580765 Z" id="Path"></path>
                </g>
            </g>
        </g>
    </g>
</svg>