<?xml version="1.0" encoding="UTF-8"?>
<svg width="32px" height="33px" viewBox="0 0 32 33" version="1.1" xmlns="http://www.w3.org/2000/svg" xmlns:xlink="http://www.w3.org/1999/xlink">
    <!-- Generator: Sketch 53.2 (72643) - https://sketchapp.com -->
    <title>pencil</title>
    <desc>Created with Sketch.</desc>
    <defs>
        <filter x="-30.8%" y="-31.8%" width="161.5%" height="163.6%" filterUnits="objectBoundingBox" id="filter-1">
            <feOffset dx="0" dy="0" in="SourceAlpha" result="shadowOffsetOuter1"></feOffset>
            <feGaussianBlur stdDeviation="2" in="shadowOffsetOuter1" result="shadowBlurOuter1"></feGaussianBlur>
            <feColorMatrix values="0 0 0 0 0   0 0 0 0 0   0 0 0 0 0  0 0 0 1 0" type="matrix" in="shadowBlurOuter1" result="shadowMatrixOuter1"></feColorMatrix>
            <feMerge>
                <feMergeNode in="shadowMatrixOuter1"></feMergeNode>
                <feMergeNode in="SourceGraphic"></feMergeNode>
            </feMerge>
        </filter>
    </defs>
    <g id="Page-1" stroke="none" stroke-width="1" fill="none" fill-rule="evenodd">
        <g id="Mobile-Copy-4" transform="translate(-253.000000, -90.000000)" fill="#F8E71C" fill-rule="nonzero">
            <g id="Group-15" transform="translate(39.000000, 94.000000)">
                <g id="Group-7" transform="translate(2.000000, 0.000000)">
                    <g id="Group-6" transform="translate(215.000000, 0.000000)">
                        <g id="pencil" filter="url(#filter-1)" transform="translate(0.000000, 0.000000)">
                            <path d="M23.8468035,1.31296188 C23.0019941,0.465865103 21.8750733,0 20.6787683,0 C19.4824633,0 18.3570674,0.465102639 17.5114956,1.31143695 L4.03648094,14.7086804 C3.95642229,14.7879765 3.89542522,14.8832845 3.85730205,14.9885044 L0.80744868,23.3756012 C0.709090909,23.6462757 0.772375367,23.9520235 0.971378299,24.1617009 C1.11777126,24.3157185 1.31829912,24.398827 1.52492669,24.398827 C1.59964809,24.398827 1.6743695,24.3881525 1.74832845,24.3652786 L9.33407625,22.0382405 C9.45302053,22.0024047 9.56129032,21.9368328 9.64973607,21.8491496 L23.847566,7.65131965 C24.6954252,6.8057478 25.1612903,5.67882698 25.1612903,4.48175953 C25.1605279,3.28545455 24.6954252,2.15929619 23.8468035,1.31296188 Z M8.4572434,20.7123167 L5.61782991,21.5845748 C5.45237537,21.0988856 5.19466276,20.6688563 4.84316716,20.3173607 C4.53741935,20.0131378 4.1828739,19.7767742 3.80926686,19.5846334 L5.1085044,16.0117302 L6.86217009,16.0117302 L6.86217009,17.5366569 C6.86217009,17.9582991 7.2029912,18.2991202 7.62463343,18.2991202 L8.97038123,18.2991202 L8.4572434,20.7123167 Z M19.6807038,9.66117302 L10.3908504,18.9510264 L10.6577126,17.6952493 C10.7049853,17.4695601 10.648563,17.2354839 10.503695,17.0570674 C10.358827,16.8778886 10.1415249,16.7741935 9.91202346,16.7741935 L8.38709677,16.7741935 L8.38709677,15.2492669 C8.38709677,14.8283871 8.0455132,14.4868035 7.62463343,14.4868035 L6.42146628,14.4868035 L15.4894428,5.47067449 L15.4985924,5.47906158 C16.0567155,4.92017595 16.8001173,4.61290323 17.5892669,4.61290323 C18.3784164,4.61290323 19.1225806,4.92017595 19.6799413,5.47906158 C20.2373021,6.03794721 20.5476246,6.78058651 20.5476246,7.57049853 C20.5476246,8.36041056 20.2403519,9.10228739 19.6807038,9.66117302 Z M22.7686804,6.57319648 L22.0580645,7.28457478 C21.9894428,6.19501466 21.5373021,5.17941349 20.7595894,4.40093842 C19.9811144,3.62170088 18.9647507,3.17032258 17.8721408,3.10246334 L18.5873314,2.39260997 L18.5888563,2.39108504 C19.1454545,1.83219941 19.8888563,1.52492669 20.6787683,1.52492669 C21.4686804,1.52492669 22.2113196,1.83219941 22.7686804,2.39108504 C23.3283284,2.94997067 23.6363636,3.69260997 23.6363636,4.48175953 C23.6363636,5.27243402 23.3298534,6.01507331 22.7686804,6.57319648 Z M17.7600587,6.3231085 L10.1354252,13.9477419 C9.83730205,14.2458651 9.83730205,14.7277419 10.1354252,15.0258651 C10.2833431,15.1745455 10.4792962,15.2492669 10.6744868,15.2492669 C10.8696774,15.2492669 11.0641056,15.1745455 11.2135484,15.0258651 L18.8381818,7.40123167 C19.136305,7.1031085 19.136305,6.62123167 18.8381818,6.3231085 C18.5392962,6.02498534 18.0581818,6.02498534 17.7600587,6.3231085 Z" id="Shape"></path>
                        </g>
                    </g>
                </g>
            </g>
        </g>
    </g>
</svg>