<?xml version="1.0" encoding="UTF-8"?>
<svg width="15px" height="20px" viewBox="0 0 15 20" version="1.1" xmlns="http://www.w3.org/2000/svg" xmlns:xlink="http://www.w3.org/1999/xlink">
    <!-- Generator: Sketch 53.2 (72643) - https://sketchapp.com -->
    <title>pin</title>
    <desc>Created with Sketch.</desc>
    <g id="Page-1" stroke="none" stroke-width="1" fill="none" fill-rule="evenodd">
        <g id="Mobile-Copy-4" transform="translate(-42.000000, -807.000000)" fill="#F8E71C" fill-rule="nonzero">
            <g id="Group-15" transform="translate(40.000000, 736.000000)">
                <g id="Group-12" transform="translate(0.000000, 41.000000)">
                    <g id="Group-7" transform="translate(2.000000, 30.000000)">
                        <path d="M12.802852,1.95308937 C11.3381209,0.650892971 9.5703667,0 7.50005127,0 C5.42963323,0 3.66208431,0.65102979 2.19725058,1.95308937 C0.732468169,3.25510334 0,4.82628564 0,6.66663626 C0,7.61292117 0.161106056,8.38973311 0.483266859,8.99739132 L5.83003822,19.0757429 C5.9765729,19.361968 6.20371191,19.5876735 6.51130134,19.7524491 C6.81894207,19.917407 7.14849118,20 7.50015389,20 C7.85171398,20 8.18141701,19.917407 8.48900644,19.7524491 C8.79664718,19.5876735 9.02840388,19.361968 9.18468702,19.0757429 L14.5164765,8.99739132 C14.8387913,8.38973311 14.9999999,7.61287557 14.9999999,6.66663626 C15.0002565,4.82628564 14.2679422,3.25528577 12.802852,1.95308937 Z M10.1513234,9.02343251 C9.4190091,9.67432548 8.53528595,9.99990879 7.50005127,9.99990879 C6.4648166,9.99990879 5.58109344,9.67432548 4.84857397,9.02343251 C4.11615711,8.37231151 3.74987171,7.58678877 3.74987171,6.66659066 C3.74987171,5.74648376 4.11615711,4.9608242 4.84857397,4.30988562 C5.58109344,3.65885583 6.46497052,3.33327252 7.50005127,3.33327252 C8.53528595,3.33327252 9.4190091,3.65885583 10.1513234,4.30988562 C10.8836889,4.96077859 11.2499743,5.74648376 11.2499743,6.66659066 C11.2499743,7.58669756 10.8837402,8.37217469 10.1513234,9.02343251 Z" id="pin"></path>
                    </g>
                </g>
            </g>
        </g>
    </g>
</svg>